{"title":"Paddington.2014.720p.BluRay.H264.AAC-RARBG","uid":11770102,"size":1245968078,"categoryP":"video","categoryS":"hd___movies","magnet":"?xt=urn:btih:c7bdc0c8a1aa77d84f5efff2757d8e6c069a71dd&amp;dn=Paddington.2014.720p.BluRay.H264.AAC-RARBG&amp;tr=udp%3A%2F%2Ftracker.openbittorrent.com%3A80&amp;tr=udp%3A%2F%2Fopen.demonii.com%3A1337&amp;tr=udp%3A%2F%2Ftracker.coppersurfer.tk%3A6969&amp;tr=udp%3A%2F%2Fexodus.desync.com%3A6969","seeders":6,"leechers":1,"uploader":"vickey1992","files":6,"time":1427035057,"description":"\n\n\nID : 1\nFormat : AVC\nFormat/Info : Advanced Video Codec\nFormat profile : &lt;a class=&quot;__cf_email__&quot; href=&quot;/cdn-cgi/l/email-protection&quot; data-cfemail=&quot;c981a0aea18985fde7f8&quot;&gt;[email&amp;#160;protected]&lt;/a&gt;&lt;script cf-hash='f9e31' type=&quot;text/javascript&quot;&gt;\n/* &lt;![CDATA[ */!function(){try{var t=&quot;currentScript&quot;in document?document.currentScript:function(){for(var t=document.getElementsByTagName(&quot;script&quot;),e=t.length;e--;)if(t[e].getAttribute(&quot;cf-hash&quot;))return t[e]}();if(t&amp;&amp;t.previousSibling){var e,r,n,i,c=t.previousSibling,a=c.getAttribute(&quot;data-cfemail&quot;);if(a){for(e=&quot;&quot;,r=parseInt(a.substr(0,2),16),n=2;a.length-n;n+=2)i=parseInt(a.substr(n,2),16)^r,e+=String.fromCharCode(i);e=document.createTextNode(e),c.parentNode.replaceChild(e,c)}}}catch(u){}}();/* ]]&gt; */&lt;/script&gt;\nFormat settings, CABAC : Yes\nFormat settings, ReFrames : 4 frames\nCodec ID : avc1\nCodec ID/Info : Advanced Video Coding\nDuration : 1h 35mn\nBit rate : 1 500 Kbps\nWidth : 1 280 pixels\nHeight : 536 pixels\nDisplay aspect ratio : 2.40:1\nFrame rate mode : Constant\nFrame rate : 23.976 fps\nColor space : YUV\nChroma subsampling : 4:2:0\nBit depth : 8 bits\nScan type : Progressive\nBits/(Pixel*Frame) : 0.091\nStream size : 1 022 MiB (87%)\nWriting library : x264 core 144 r2525M 40bb568\nEncoding settings : cabac=1 / ref=4 / deblock=1:-1:-1 / analyse=0x3:0x113 / me=umh / subme=9 / psy=1 / psy_rd=1.00:0.15 / mixed_ref=1 / me_range=24 / chroma_me=1 / trellis=2 / 8x8dct=1 / cqm=0 / deadzone=21,11 / fast_pskip=1 / chroma_qp_offset=-3 / threads=32 / lookahead_threads=4 / sliced_threads=0 / nr=0 / decimate=1 / interlaced=0 / bluray_compat=0 / constrained_intra=0 / bframes=3 / b_pyramid=2 / b_adapt=1 / b_bias=0 / direct=1 / weightb=1 / open_gop=0 / weightp=2 / keyint=250 / keyint_min=25 / scenecut=40 / intra_refresh=0 / rc_lookahead=50 / rc=2pass / mbtree=1 / bitrate=1500 / ratetol=1.0 / qcomp=0.60 / qpmin=0 / qpmax=69 / qpstep=4 / cplxblur=20.0 / qblur=0.5 / vbv_maxrate=31250 / vbv_bufsize=31250 / nal_hrd=none / filler=0 / ip_ratio=1.40 / aq=3:1.00\nEncoded date : UTC 1904-01-01 00:00:00\nTagged date : UTC 1904-01-01 00:00:00\n\nAudio\nID : 2\nFormat : AAC\nFormat/Info : Advanced Audio Codec\nFormat profile : LC\nCodec ID : 40\nDuration : 1h 35mn\nBit rate mode : Constant\nBit rate : 224 Kbps\nChannel(s) : 2 channels\nChannel(s)_Original : 6 channels\nChannel positions : Front: L C R, Side: L R, LFE\nSampling rate : 48.0 KHz\nCompression mode : Lossy\nStream size : 153 MiB (13%)\nLanguage : English\nEncoded date : UTC 1904-01-01 00:00:00\nTagged date : UTC 1904-01-01 00:00:00\n\nMenu #1\nID : 3\nCodec ID : text\nDuration : 1h 35mn\nLanguage : English\nEncoded date : UTC 1904-01-01 00:00:00\nTagged date : UTC 1904-01-01 00:00:00\nBit rate mode : CBR\n00:00:00.000 : 00:00:00.000\n00:09:26.192 : 00:09:26.149\n00:16:45.798 : 00:16:45.755\n00:24:45.694 : 00:24:45.651\n00:32:44.964 : 00:32:44.921\n00:40:31.222 : 00:40:31.179\n00:47:55.707 : 00:47:55.664\n00:57:52.512 : 00:57:52.469\n01:03:24.510 : 01:03:24.467\n01:10:31.770 : 01:10:31.727\n01:23:50.026 : 01:23:49.983\n01:27:39.547 : 01:27:39.504\n\nMenu #2\n00:00:00.043 : 00:00:00.000\n00:09:26.192 : 00:09:26.149\n00:16:45.798 : 00:16:45.755\n00:24:45.694 : 00:24:45.651\n00:32:44.964 : 00:32:44.921\n00:40:31.222 : 00:40:31.179\n00:47:55.707 : 00:47:55.664\n00:57:52.512 : 00:57:52.469\n01:03:24.510 : 01:03:24.467\n01:10:31.770 : 01:10:31.727\n01:23:50.026 : 01:23:49.983\n01:27:39.547 : 01:27:39.504\n\n\n\n\nPaddington.2014.720p.BluRay.H264.AAC-RARBG\thttp://imdb.com/title/tt1109624/\n\nCategory:\tMovies/x264/720\nSize:\t1.16 GB\nShow/Hide Files:\t\n6 files\nAdded:\t2015-03-21 01:30:35\nTitle:\tPaddington (2014)\nIMDB Rating:\t7.5/10 Updated : 2015-03-08\nRotten Rating:\t7.9/10\nRottenTomatoes:\tfresh! 98% audience liked it! 85%\nGenres:\tComedy , Family\nActors:\tHugh Bonneville , Sally Hawkins , Julie Walters , Tim Downie , Madeleine Worrall , Lottie Steer , Geoffrey Palmer , Theresa Watson , Imelda Staunton , \nMichael Gambon , Ben Whishaw , Madeleine Harris , Samuel Joslin , Michael Bond , Matt Lucas\nDirector:\tPaul King\nRuntime:\t95\nYear:\t2014\nPlot:\tA young Peruvian bear with a passion for all things British travels to London in search of a home. Finding himself lost and alone at Paddington Station| he begins to\nrealize that city life is not all he had imagined - until he meets the kindly Brown family| who read the label around his neck ('Please look after this bear. Thank\nyou.') and offer him a temporary haven. It looks as though his luck has changed until this rarest of bears catches the eye of a museum taxidermist.\nRotten Plot:\tPaddington brings a beloved children's character into the 21st century without sacrificing his essential charm, delivering a family-friendly adventure as irresistibly cuddly as its star","torrent":{"xt":"urn:btih:c7bdc0c8a1aa77d84f5efff2757d8e6c069a71dd","amp;dn":"Paddington.2014.720p.BluRay.H264.AAC-RARBG","amp;tr":["udp%3A%2F%2Ftracker.openbittorrent.com%3A80","udp%3A%2F%2Fopen.demonii.com%3A1337","udp%3A%2F%2Ftracker.coppersurfer.tk%3A6969","udp%3A%2F%2Fexodus.desync.com%3A6969"],"infoHash":"c7bdc0c8a1aa77d84f5efff2757d8e6c069a71dd","infoHashBuffer":{"type":"Buffer","data":[199,189,192,200,161,170,119,216,79,94,255,242,117,125,142,108,6,154,113,221]},"announce":[],"urlList":[]}}